<svg height="512" viewBox="0 0 512 512" width="512" xmlns="http://www.w3.org/2000/svg"><g><g fill="#57a4ff"><path d="m408 448-48 48v-48z"/><path d="m408 448-48 48v-48z"/></g><g fill="#004fac"><path d="m408 8h-304a8 8 0 0 0 -8 8v480a8 8 0 0 0 8 8h256a8.008 8.008 0 0 0 5.66-2.34l48-48a8.008 8.008 0 0 0 2.34-5.66v-432a8 8 0 0 0 -8-8zm-40 468.69v-20.69h20.69zm32-36.69h-40a8 8 0 0 0 -8 8v40h-240v-464h288z"/><path d="m291.969 193.054a8 8 0 0 0 -10.915 2.977l-64 112a8 8 0 1 0 13.892 7.938l64-112a8 8 0 0 0 -2.977-10.915z"/><path d="m366.4 260.8a8 8 0 0 0 0-9.6l-48-64a8 8 0 0 0 -12.8 9.6l44.4 59.2-44.4 59.2a8 8 0 1 0 12.8 9.6z"/><path d="m204.8 185.6a8 8 0 0 0 -11.2 1.6l-48 64a8 8 0 0 0 0 9.6l48 64a8 8 0 1 0 12.8-9.6l-44.4-59.2 44.4-59.2a8 8 0 0 0 -1.6-11.2z"/></g></g></svg>