<svg height="512" viewBox="0 0 512 512" width="512" xmlns="http://www.w3.org/2000/svg"><g><g fill="#57a4ff"><g><path d="m336 96v48c0 17.67-35.82 32-80 32s-80-14.33-80-32v-48c0 17.67 35.82 32 80 32s80-14.33 80-32z"/><path d="m336 48v48c0 17.67-35.82 32-80 32s-80-14.33-80-32v-48c0 17.67 35.82 32 80 32s80-14.33 80-32z"/></g><g><path d="m336 416v48c0 17.67-35.82 32-80 32s-80-14.33-80-32v-48c0 17.67 35.82 32 80 32s80-14.33 80-32z"/><path d="m336 368v48c0 17.67-35.82 32-80 32s-80-14.33-80-32v-48c0 17.67 35.82 32 80 32s80-14.33 80-32z"/></g><g><path d="m496 256v48c0 17.67-35.82 32-80 32s-80-14.33-80-32v-48c0 17.67 35.82 32 80 32s80-14.33 80-32z"/><path d="m496 208v48c0 17.67-35.82 32-80 32s-80-14.33-80-32v-48c0 17.67 35.82 32 80 32s80-14.33 80-32z"/></g><g><path d="m168 256v48c0 17.67-35.82 32-80 32s-80-14.33-80-32v-48c0 17.67 35.82 32 80 32s80-14.33 80-32z"/><path d="m168 208v48c0 17.67-35.82 32-80 32s-80-14.33-80-32v-48c0 17.67 35.82 32 80 32s80-14.33 80-32z"/></g></g><path d="m475.54 177.95c-13.42-5.37-30.42-8.71-48.71-9.66a193.267 193.267 0 0 0 -82.83-82.96v-37.33c0-12.04-10.11-22.71-28.46-30.05-16.04-6.42-37.18-9.95-59.54-9.95s-43.5 3.53-59.54 9.95c-18.35 7.34-28.46 18.01-28.46 30.05v37.33a193.031 193.031 0 0 0 -82.68 82.7c-21.37.27-41.47 3.76-56.86 9.92-18.35 7.34-28.46 18.01-28.46 30.05v96c0 12.04 10.11 22.71 28.46 30.05 15.39 6.16 35.49 9.65 56.86 9.92a193.031 193.031 0 0 0 82.68 82.7v37.33c0 12.04 10.11 22.71 28.46 30.05 16.04 6.42 37.18 9.95 59.54 9.95s43.5-3.53 59.54-9.95c18.35-7.34 28.46-18.01 28.46-30.05v-37.33a193.267 193.267 0 0 0 82.83-82.96c18.29-.95 35.29-4.29 48.71-9.66 18.35-7.34 28.46-18.01 28.46-30.05v-96c0-12.04-10.11-22.71-28.46-30.05zm-219.54-153.95c43.95 0 72 14.21 72 24s-28.05 24-72 24-72-14.21-72-24 28.05-24 72-24zm-72 47.78a74.592 74.592 0 0 0 12.46 6.27c16.03 6.42 37.18 9.95 59.54 9.95s43.51-3.53 59.54-9.95a74.592 74.592 0 0 0 12.46-6.27v24.22c0 9.79-28.05 24-72 24s-72-14.21-72-24zm0 48a74.592 74.592 0 0 0 12.46 6.27c16.03 6.42 37.18 9.95 59.54 9.95s43.51-3.53 59.54-9.95a74.592 74.592 0 0 0 12.46-6.27v24.22c0 9.79-28.05 24-72 24s-72-14.21-72-24zm-96 64.22c43.95 0 72 14.21 72 24s-28.05 24-72 24-72-14.21-72-24 28.05-24 72-24zm-72 47.78a74.592 74.592 0 0 0 12.46 6.27c16.03 6.42 37.18 9.95 59.54 9.95s43.51-3.53 59.54-9.95a74.592 74.592 0 0 0 12.46-6.27v24.22c0 9.79-28.05 24-72 24s-72-14.21-72-24zm0 72.22v-24.22a74.592 74.592 0 0 0 12.46 6.27c16.03 6.42 37.18 9.95 59.54 9.95s43.51-3.53 59.54-9.95a74.592 74.592 0 0 0 12.46-6.27v24.22c0 9.79-28.05 24-72 24s-72-14.21-72-24zm312 160c0 9.79-28.05 24-72 24s-72-14.21-72-24v-24.22a74.592 74.592 0 0 0 12.46 6.27c16.03 6.42 37.18 9.95 59.54 9.95s43.51-3.53 59.54-9.95a74.592 74.592 0 0 0 12.46-6.27zm0-48c0 9.79-28.05 24-72 24s-72-14.21-72-24v-24.22a74.592 74.592 0 0 0 12.46 6.27c16.03 6.42 37.18 9.95 59.54 9.95s43.51-3.53 59.54-9.95a74.592 74.592 0 0 0 12.46-6.27zm-72-24c-43.95 0-72-14.21-72-24s28.05-24 72-24 72 14.21 72 24-28.05 24-72 24zm88 16.44v-40.44c0-12.04-10.11-22.71-28.46-30.05-16.04-6.42-37.18-9.95-59.54-9.95s-43.5 3.53-59.54 9.95c-18.35 7.34-28.46 18.01-28.46 30.05v40.44a177.34 177.34 0 0 1 -64.76-65.01c16.61-1.22 31.97-4.44 44.3-9.38 18.35-7.34 28.46-18.01 28.46-30.05v-96c0-12.04-10.11-22.71-28.46-30.05-12.33-4.94-27.69-8.16-44.3-9.39a177.388 177.388 0 0 1 64.76-65v40.44c0 12.04 10.11 22.71 28.46 30.05 16.04 6.42 37.18 9.95 59.54 9.95s43.5-3.53 59.54-9.95c18.35-7.34 28.46-18.01 28.46-30.05v-40.44a177.427 177.427 0 0 1 64.52 64.58c-19.56.7-37.83 4.11-52.06 9.81-18.35 7.34-28.46 18.01-28.46 30.05v96c0 12.04 10.11 22.71 28.46 30.05 14.23 5.7 32.5 9.11 52.06 9.81a177.427 177.427 0 0 1 -64.52 64.58zm144-104.44c0 9.79-28.05 24-72 24s-72-14.21-72-24v-24.22a74.592 74.592 0 0 0 12.46 6.27c16.03 6.42 37.18 9.95 59.54 9.95s43.51-3.53 59.54-9.95a74.592 74.592 0 0 0 12.46-6.27zm0-48c0 9.79-28.05 24-72 24s-72-14.21-72-24v-24.22a74.592 74.592 0 0 0 12.46 6.27c16.03 6.42 37.18 9.95 59.54 9.95s43.51-3.53 59.54-9.95a74.592 74.592 0 0 0 12.46-6.27zm-72-24c-43.95 0-72-14.21-72-24s28.05-24 72-24 72 14.21 72 24-28.05 24-72 24z" fill="#004fac"/></g></svg>