<svg height="512" viewBox="0 0 512 512" width="512" xmlns="http://www.w3.org/2000/svg"><g><g fill="#57a4ff"><path d="m496 288v-64h-50.67a190.82 190.82 0 0 0 -32.83-79.25l35.83-35.83-45.25-45.25-35.83 35.83a190.82 190.82 0 0 0 -79.25-32.83v-50.67h-64v50.67a190.82 190.82 0 0 0 -79.25 32.83l-35.83-35.83-45.25 45.25 35.83 35.83a190.82 190.82 0 0 0 -32.83 79.25h-50.67v64h50.67a190.82 190.82 0 0 0 32.83 79.25l-35.83 35.83 45.25 45.25 35.83-35.83a190.82 190.82 0 0 0 79.25 32.83v50.67h64v-50.67a190.82 190.82 0 0 0 79.25-32.83l35.83 35.83 45.25-45.25-35.83-35.83a190.82 190.82 0 0 0 32.83-79.25zm-200 106.37v-2.37h-80v2.37a144 144 0 1 1 80 0z"/><path d="m280 208h-48l24-48z"/><path d="m216 248h80v146.37h-80z"/><path d="m280 208h-48l24-48z"/><path d="m296 248v146.37a142.987 142.987 0 0 1 -24 4.75 145.895 145.895 0 0 1 -32 0 142.987 142.987 0 0 1 -24-4.75v-146.37z"/></g><g fill="#004fac"><path d="m496 216h-44.02a200.568 200.568 0 0 0 -29.12-70.29l31.13-31.13a8.015 8.015 0 0 0 0-11.32l-45.26-45.25a8 8 0 0 0 -11.31 0l-31.13 31.13a200.568 200.568 0 0 0 -70.29-29.12v-44.02a8 8 0 0 0 -8-8h-64a8 8 0 0 0 -8 8v44.02a200.568 200.568 0 0 0 -70.29 29.12l-31.13-31.13a8 8 0 0 0 -11.31 0l-45.26 45.25a8.015 8.015 0 0 0 0 11.32l31.13 31.13a200.568 200.568 0 0 0 -29.12 70.29h-44.02a8 8 0 0 0 -8 8v64a8 8 0 0 0 8 8h44.02a200.568 200.568 0 0 0 29.12 70.29l-31.13 31.13a8.015 8.015 0 0 0 0 11.32l45.26 45.25a8 8 0 0 0 11.31 0l31.13-31.13a200.568 200.568 0 0 0 70.29 29.12v44.02a8 8 0 0 0 8 8h64a8 8 0 0 0 8-8v-44.02a200.568 200.568 0 0 0 70.29-29.12l31.13 31.13a8 8 0 0 0 11.31 0l45.26-45.25a8.015 8.015 0 0 0 0-11.32l-31.13-31.13a200.568 200.568 0 0 0 29.12-70.29h44.02a8 8 0 0 0 8-8v-64a8 8 0 0 0 -8-8zm-8 64h-42.67a8 8 0 0 0 -7.89 6.68 184.285 184.285 0 0 1 -31.45 75.93 7.99 7.99 0 0 0 .86 10.3l30.17 30.17-33.94 33.94-30.18-30.17a7.976 7.976 0 0 0 -10.29-.86 184.285 184.285 0 0 1 -75.93 31.45 8 8 0 0 0 -6.68 7.89v42.67h-48v-42.67a8 8 0 0 0 -6.68-7.89 184.285 184.285 0 0 1 -75.93-31.45 7.988 7.988 0 0 0 -10.29.86l-30.18 30.17-33.94-33.94 30.17-30.17a7.99 7.99 0 0 0 .86-10.3 184.285 184.285 0 0 1 -31.45-75.93 8 8 0 0 0 -7.89-6.68h-42.67v-48h42.67a8 8 0 0 0 7.89-6.68 184.285 184.285 0 0 1 31.45-75.93 7.99 7.99 0 0 0 -.86-10.3l-30.17-30.17 33.94-33.94 30.18 30.17a7.976 7.976 0 0 0 10.29.86 184.285 184.285 0 0 1 75.93-31.45 8 8 0 0 0 6.68-7.89v-42.67h48v42.67a8 8 0 0 0 6.68 7.89 184.285 184.285 0 0 1 75.93 31.45 7.976 7.976 0 0 0 10.29-.86l30.18-30.17 33.94 33.94-30.17 30.17a7.99 7.99 0 0 0 -.86 10.3 184.285 184.285 0 0 1 31.45 75.93 8 8 0 0 0 7.89 6.68h42.67z"/><path d="m256 104c-83.813 0-152 68.187-152 152s68.187 152 152 152 152-68.187 152-152-68.187-152-152-152zm32 284.188c-2.639.638-5.3 1.209-8 1.691v-133.879h8zm-51.056-172.188h38.112l12 24h-62.112zm8-16 11.056-22.111 11.056 22.111zm-20.944 56h8.069a8.047 8.047 0 0 0 -.069 1v132.879c-2.7-.482-5.361-1.053-8-1.691zm24 135.758v-134.758a8.047 8.047 0 0 0 -.069-1h16.069v135.758c-2.648.155-5.314.242-8 .242s-5.352-.087-8-.242zm56-8.514v-143.244a7.994 7.994 0 0 0 -.845-3.578l-40-80a8 8 0 0 0 -14.31 0l-40 80a7.994 7.994 0 0 0 -.845 3.578v143.244a136.223 136.223 0 0 1 -88-127.244c0-74.99 61.009-136 136-136s136 61.01 136 136a136.223 136.223 0 0 1 -88 127.244z"/></g></g></svg>