<svg height="512" viewBox="0 0 512 512" width="512" xmlns="http://www.w3.org/2000/svg"><g><g fill="#57a4ff"><g><path d="m224 152 40 32v80l-48 32v152h-48v-152l-48-32v-80l40-32v87.22l32 21 32-21z"/><path d="m496 84v28h-480v-28a19.994 19.994 0 0 1 20-20h440a19.994 19.994 0 0 1 20 20z"/></g><path d="m264 184v80l-48 32v152h-48v-152l-48-32v-80l40-32v87.22l32 21 32-21v-87.22z"/></g><g fill="#004fac"><path d="m476 56h-440a28.031 28.031 0 0 0 -28 28v344a28.031 28.031 0 0 0 28 28h440a28.031 28.031 0 0 0 28-28v-344a28.031 28.031 0 0 0 -28-28zm-264.44 233.34a8.033 8.033 0 0 0 -3.56 6.66v144h-32v-144a8.033 8.033 0 0 0 -3.56-6.66l-44.44-29.62v-71.87l24-19.2v70.57a8.006 8.006 0 0 0 3.61 6.69l32 21a8 8 0 0 0 8.78 0l32-21a8.006 8.006 0 0 0 3.61-6.69v-70.57l24 19.2v71.87zm148.44 150.66h-32v-128h32zm4-144h-40l-19.22-25.62 29.25-102.38h19.94l29.25 102.38zm124 132a12.01 12.01 0 0 1 -12 12h-100v-133.33l22.4-29.87a8 8 0 0 0 1.29-7l-32-112a8 8 0 0 0 -7.69-5.8h-32a8 8 0 0 0 -7.69 5.8l-32 112a8 8 0 0 0 1.29 7l22.4 29.87v133.33h-88v-139.72l44.44-29.62a8.033 8.033 0 0 0 3.56-6.66v-80a8 8 0 0 0 -3-6.25l-40-32a8 8 0 0 0 -13 6.25v82.9l-24 15.75-24-15.75v-82.9a8 8 0 0 0 -13-6.25l-40 32a8 8 0 0 0 -3 6.25v80a8.033 8.033 0 0 0 3.56 6.66l44.44 29.62v139.72h-124a12.01 12.01 0 0 1 -12-12v-308h464zm0-324h-464v-20a12.01 12.01 0 0 1 12-12h440a12.01 12.01 0 0 1 12 12z"/><path d="m40 96h8a8 8 0 0 0 0-16h-8a8 8 0 0 0 0 16z"/><path d="m72 96h8a8 8 0 0 0 0-16h-8a8 8 0 0 0 0 16z"/><path d="m104 96h8a8 8 0 0 0 0-16h-8a8 8 0 0 0 0 16z"/><path d="m440 416h-48a8 8 0 0 0 0 16h48a8 8 0 0 0 0-16z"/><path d="m472 416h-8a8 8 0 0 0 0 16h8a8 8 0 0 0 0-16z"/></g></g></svg>