<svg height="512" viewBox="0 0 512 512" width="512" xmlns="http://www.w3.org/2000/svg"><g><g fill="#57a4ff"><path d="m16 400v96h480v-96zm72 72h-48v-48h48zm72 0h-48v-48h48zm296-8a16 16 0 1 1 16-16 16 16 0 0 1 -16 16z"/><path d="m327.5 232-71.5 88-71.5-88z"/><path d="m360 192-104 128-104-128h56v-176h96v176z"/></g><g fill="#004fac"><path d="m503.48 397.15-64-168a8.014 8.014 0 0 0 -7.48-5.15h-87.69l21.9-26.96a8 8 0 0 0 -6.21-13.04h-48v-168a8 8 0 0 0 -8-8h-96a8 8 0 0 0 -8 8v168h-48a8 8 0 0 0 -6.21 13.04l21.91 26.96h-87.7a8.014 8.014 0 0 0 -7.48 5.15l-64 168a8.025 8.025 0 0 0 -.52 2.85v96a8 8 0 0 0 8 8h480a8 8 0 0 0 8-8v-96a8.025 8.025 0 0 0 -.52-2.85zm-295.48-197.15a8 8 0 0 0 8-8v-168h80v168a8 8 0 0 0 8 8h39.19l-87.19 107.31-87.19-107.31zm-122.49 40h95.19l69.09 85.04a7.994 7.994 0 0 0 12.42 0l69.1-85.04h95.18l57.9 152h-456.78zm402.49 248h-464v-80h464z"/><path d="m40 480h48a8 8 0 0 0 8-8v-48a8 8 0 0 0 -8-8h-48a8 8 0 0 0 -8 8v48a8 8 0 0 0 8 8zm8-48h32v32h-32z"/><path d="m112 480h48a8 8 0 0 0 8-8v-48a8 8 0 0 0 -8-8h-48a8 8 0 0 0 -8 8v48a8 8 0 0 0 8 8zm8-48h32v32h-32z"/><path d="m200 456h233.38a24 24 0 1 0 0-16h-233.38a8 8 0 0 0 0 16zm256-16a8 8 0 1 1 -8 8 8.011 8.011 0 0 1 8-8z"/></g></g></svg>