<svg height="512" viewBox="0 0 512 512" width="512" xmlns="http://www.w3.org/2000/svg"><g><g fill="#57a4ff"><path d="m232 64h-64v-24h48z"/><path d="m360 64v128h-208v-152h64l16 24z"/><path d="m176 448-48 48v-48z"/><path d="m176 448-48 48v-48z"/><path d="m448 496h-112v-208h160v160z"/><path d="m448 496v-48h48z"/></g><g fill="#004fac"><path d="m40 320a8 8 0 0 0 8 8h96a8 8 0 0 0 0-16h-96a8 8 0 0 0 -8 8z"/><path d="m144 344h-96a8 8 0 0 0 0 16h96a8 8 0 0 0 0-16z"/><path d="m144 376h-96a8 8 0 0 0 0 16h96a8 8 0 0 0 0-16z"/><path d="m96 408h-48a8 8 0 0 0 0 16h48a8 8 0 0 0 0-16z"/><path d="m128 408h-8a8 8 0 0 0 0 16h8a8 8 0 0 0 0-16z"/><path d="m496 280h-72v-40a8 8 0 0 0 -8-8h-152v-32h96a8 8 0 0 0 8-8v-128a8 8 0 0 0 -8-8h-8v-40a8 8 0 0 0 -8-8h-176a8 8 0 0 0 -8 8v16h-8a8 8 0 0 0 -8 8v152a8 8 0 0 0 8 8h96v32h-152a8 8 0 0 0 -8 8v40h-72a8 8 0 0 0 -8 8v208a8 8 0 0 0 8 8h112a8.008 8.008 0 0 0 5.66-2.34l48-48a8.008 8.008 0 0 0 2.34-5.66v-160a8 8 0 0 0 -8-8h-72v-32h304v32h-72a8 8 0 0 0 -8 8v208a8 8 0 0 0 8 8h112a8.008 8.008 0 0 0 5.66-2.34l48-48a8.008 8.008 0 0 0 2.34-5.66v-160a8 8 0 0 0 -8-8zm-360 196.69v-20.69h20.69zm32-180.69v144h-40a8 8 0 0 0 -8 8v40h-96v-192zm8-272h160v32h-99.72l-13.62-20.44a8.033 8.033 0 0 0 -6.66-3.56h-40zm-16 160v-136h51.72l13.62 20.44a8.033 8.033 0 0 0 6.66 3.56h120v112zm296 292.69v-20.69h20.69zm32-36.69h-40a8 8 0 0 0 -8 8v40h-96v-192h144z"/><path d="m368 328h96a8 8 0 0 0 0-16h-96a8 8 0 0 0 0 16z"/><path d="m368 360h96a8 8 0 0 0 0-16h-96a8 8 0 0 0 0 16z"/><path d="m368 392h96a8 8 0 0 0 0-16h-96a8 8 0 0 0 0 16z"/><path d="m416 408h-48a8 8 0 0 0 0 16h48a8 8 0 0 0 0-16z"/><path d="m440 424h8a8 8 0 0 0 0-16h-8a8 8 0 0 0 0 16z"/></g></g></svg>