<svg height="512" viewBox="0 0 512 512" width="512" xmlns="http://www.w3.org/2000/svg"><g><g fill="#57a4ff"><path d="m464 144-416 1v-65h128l32 64z"/><path d="m484 144h-276l-32-64h-148a12 12 0 0 0 -12 12v360a12 12 0 0 0 12 12h456a12 12 0 0 0 12-12v-296a12 12 0 0 0 -12-12zm-156 252a12 12 0 0 1 -12 12h-120a12 12 0 0 1 -12-12v-72a12 12 0 0 1 12-12h120a12 12 0 0 1 12 12z"/></g><g fill="#004fac"><path d="m484 136h-12v-88a8 8 0 0 0 -8-8h-416a8 8 0 0 0 -8 8v24h-12a20.02 20.02 0 0 0 -20 20v360a20.02 20.02 0 0 0 20 20h456a20.02 20.02 0 0 0 20-20v-296a20.02 20.02 0 0 0 -20-20zm-428-80h400v80h-243.06l-29.78-59.58a8.011 8.011 0 0 0 -7.16-4.42h-120zm432 396a4 4 0 0 1 -4 4h-456a4 4 0 0 1 -4-4v-360a4 4 0 0 1 4-4h143.06l29.78 59.58a8.011 8.011 0 0 0 7.16 4.42h276a4 4 0 0 1 4 4z"/><path d="m316 304h-4v-40a56 56 0 0 0 -112 0v40h-4a20.02 20.02 0 0 0 -20 20v72a20.02 20.02 0 0 0 20 20h120a20.02 20.02 0 0 0 20-20v-72a20.02 20.02 0 0 0 -20-20zm-100-40a40 40 0 0 1 80 0v40h-80zm104 132a4 4 0 0 1 -4 4h-120a4 4 0 0 1 -4-4v-72a4 4 0 0 1 4-4h120a4 4 0 0 1 4 4z"/><path d="m440 432h-80a8 8 0 0 0 0 16h80a8 8 0 0 0 0-16z"/><path d="m472 432h-8a8 8 0 0 0 0 16h8a8 8 0 0 0 0-16z"/></g></g></svg>