<svg height="512" viewBox="0 0 512 512" width="512" xmlns="http://www.w3.org/2000/svg"><g><g fill="#57a4ff"><path d="m191 112h-111v-64h79z"/><path d="m464 124v248a12 12 0 0 1 -12 12h-392a12 12 0 0 1 -12-12v-312a12 12 0 0 1 12-12h99l32 64h261a12 12 0 0 1 12 12z"/></g><g fill="#004fac"><path d="m452 104h-12v-88a8 8 0 0 0 -8-8h-352a8 8 0 0 0 -8 8v24h-12a20.02 20.02 0 0 0 -20 20v312a20.02 20.02 0 0 0 20 20h188v48a8.258 8.258 0 0 0 .07 1 32.124 32.124 0 0 0 -23.06 23h-90.02a32 32 0 1 0 0 16h90.02a32.008 32.008 0 0 0 61.98 0h89.02a32 32 0 1 0 0-16h-89.02a32.124 32.124 0 0 0 -23.06-23 8.258 8.258 0 0 0 .07-1v-48h188a20.02 20.02 0 0 0 20-20v-248a20.02 20.02 0 0 0 -20-20zm-348 384a16 16 0 1 1 16-16 16.021 16.021 0 0 1 -16 16zm303-32a16 16 0 1 1 -16 16 16.021 16.021 0 0 1 16-16zm-319-432h336v80h-228.06l-29.78-59.58a8.011 8.011 0 0 0 -7.16-4.42h-71zm184 448a16 16 0 1 1 -16-16 16.021 16.021 0 0 1 16 16zm184-100a4 4 0 0 1 -4 4h-392a4 4 0 0 1 -4-4v-312a4 4 0 0 1 4-4h94.06l29.78 59.58a8.011 8.011 0 0 0 7.16 4.42h261a4 4 0 0 1 4 4z"/><path d="m408 352h-72a8 8 0 0 0 0 16h72a8 8 0 0 0 0-16z"/><path d="m440 352h-8a8 8 0 0 0 0 16h8a8 8 0 0 0 0-16z"/></g></g></svg>