<svg height="512" viewBox="0 0 512 512" width="512" xmlns="http://www.w3.org/2000/svg"><g><path d="m16 296v96h480v-96zm72 72h-48v-48h48zm72 0h-48v-48h48zm296-8a16 16 0 1 1 16-16 16 16 0 0 1 -16 16z" fill="#57a4ff"/><g fill="#004fac"><path d="m503.48 293.15-64-168a8.014 8.014 0 0 0 -7.48-5.15h-352a8.014 8.014 0 0 0 -7.48 5.15l-64 168a8.025 8.025 0 0 0 -.52 2.85v96a8 8 0 0 0 8 8h480a8 8 0 0 0 8-8v-96a8.025 8.025 0 0 0 -.52-2.85zm-417.97-157.15h340.98l57.9 152h-456.78zm402.49 248h-464v-80h464z"/><path d="m40 376h48a8 8 0 0 0 8-8v-48a8 8 0 0 0 -8-8h-48a8 8 0 0 0 -8 8v48a8 8 0 0 0 8 8zm8-48h32v32h-32z"/><path d="m112 376h48a8 8 0 0 0 8-8v-48a8 8 0 0 0 -8-8h-48a8 8 0 0 0 -8 8v48a8 8 0 0 0 8 8zm8-48h32v32h-32z"/><path d="m456 320a24.041 24.041 0 0 0 -22.62 16h-233.38a8 8 0 0 0 0 16h233.38a24 24 0 1 0 22.62-32zm0 32a8 8 0 1 1 8-8 8.011 8.011 0 0 1 -8 8z"/></g></g></svg>