<svg height="512" viewBox="0 0 512 512" width="512" xmlns="http://www.w3.org/2000/svg"><g><g><g fill="#57a4ff"><path d="m336 238.86v121.14h-40v-64h-80v64h-40v-121.14l8.73-6.86 71.27-56 71.27 56z"/><path d="m496 84v28h-480v-28a19.994 19.994 0 0 1 20-20h440a19.994 19.994 0 0 1 20 20z"/></g><path d="m336 238.86v121.14h-40v-64h-80v64h-40v-121.14l8.73-6.86 71.27-56 71.27 56z" fill="#57a4ff"/><g fill="none"><path d="m184.73 232-8.73 6.86"/><path d="m336 238.86-8.73-6.86"/><path d="m368 264-32-25.14"/><path d="m176 238.86-32 25.14"/></g></g><g fill="#004fac"><path d="m476 56h-440a28.031 28.031 0 0 0 -28 28v344a28.031 28.031 0 0 0 28 28h440a28.031 28.031 0 0 0 28-28v-344a28.031 28.031 0 0 0 -28-28zm12 372a12.01 12.01 0 0 1 -12 12h-440a12.01 12.01 0 0 1 -12-12v-308h464zm0-324h-464v-20a12.01 12.01 0 0 1 12-12h440a12.01 12.01 0 0 1 12 12z"/><path d="m384 352h-40v-96.68l19.06 14.97a8 8 0 1 0 9.88-12.58l-32-25.14-8.73-6.86-71.27-56a7.991 7.991 0 0 0 -9.88 0l-71.27 56-8.73 6.86-32 25.14a8 8 0 1 0 9.88 12.58l19.06-14.97v96.68h-40a8 8 0 0 0 0 16h256a8 8 0 0 0 0-16zm-96 0h-64v-48h64zm40 0h-24v-56a8 8 0 0 0 -8-8h-80a8 8 0 0 0 -8 8v56h-24v-109.25l2.96-2.32 69.04-54.26 69.04 54.26 2.96 2.32z"/><path d="m40 96h8a8 8 0 0 0 0-16h-8a8 8 0 0 0 0 16z"/><path d="m72 96h8a8 8 0 0 0 0-16h-8a8 8 0 0 0 0 16z"/><path d="m104 96h8a8 8 0 0 0 0-16h-8a8 8 0 0 0 0 16z"/><path d="m440 416h-72a8 8 0 0 0 0 16h72a8 8 0 0 0 0-16z"/><path d="m472 416h-8a8 8 0 0 0 0 16h8a8 8 0 0 0 0-16z"/></g></g></svg>