<svg height="512" viewBox="0 0 512 512" width="512" xmlns="http://www.w3.org/2000/svg"><g><path d="m296 424v28a19.994 19.994 0 0 1 -20 20h-40a19.994 19.994 0 0 1 -20-20v-28z" fill="#57a4ff"/><g fill="#004fac"><path d="m288 280h-64a8 8 0 0 0 0 16h64a8 8 0 0 0 0-16z"/><path d="m384 40a120.523 120.523 0 0 0 -48.86 10.37 127.541 127.541 0 0 0 -95.14-42.37c-66.38 0-121.27 50.98-127.42 115.84a80.021 80.021 0 1 0 -24.58 156.16h72.34c-.22 2.64-.34 5.31-.34 8a95.626 95.626 0 0 0 48 83.16v20.84h-8a8 8 0 0 0 -8 8v24a8 8 0 0 0 8 8h8v20a28.043 28.043 0 0 0 24 27.71v.29a24 24 0 0 0 48 0v-.29a28.043 28.043 0 0 0 24-27.71v-20h8a8 8 0 0 0 8-8v-24a8 8 0 0 0 -8-8h-8v-20.84a95.626 95.626 0 0 0 48-83.16c0-2.69-.12-5.36-.34-8h32.34a120 120 0 0 0 0-240zm-128 448a8.011 8.011 0 0 1 -8-8h16a8.011 8.011 0 0 1 -8 8zm32-36a12.01 12.01 0 0 1 -12 12h-40a12.01 12.01 0 0 1 -12-12v-20h64zm16-36h-96v-8h96zm-11.64-56.72a7.984 7.984 0 0 0 -4.36 7.12v25.6h-8v-80a8 8 0 0 0 -16 0v80h-16v-80a8 8 0 0 0 -16 0v80h-8v-25.6a7.984 7.984 0 0 0 -4.36-7.12 80 80 0 1 1 72.72 0zm151.06-113.92a103.337 103.337 0 0 1 -59.42 18.64h-35.04a96.011 96.011 0 0 0 -185.92 0h-75.04a64 64 0 1 1 28.44-121.34 8 8 0 0 0 11.57-7.13c.24-61.5 50.48-111.53 111.99-111.53a111.627 111.627 0 0 1 86.85 41.29 8 8 0 0 0 9.84 2.06 102.911 102.911 0 0 1 47.31-11.35 104 104 0 0 1 59.42 189.36z"/></g></g></svg>