<svg height="512" viewBox="0 0 512 512" width="512" xmlns="http://www.w3.org/2000/svg"><g><g fill="#57a4ff"><g><path d="m256 392a120 120 0 0 1 0-240c-30.93 0-56 53.73-56 120s25.07 120 56 120z"/><path d="m376 272a120.005 120.005 0 0 1 -120 120c30.93 0 56-53.73 56-120s-25.07-120-56-120a120.005 120.005 0 0 1 120 120z"/><path d="m496 84v28h-480v-28a19.994 19.994 0 0 1 20-20h440a19.994 19.994 0 0 1 20 20z"/></g><path d="m256 392a120 120 0 0 1 0-240c-30.93 0-56 53.73-56 120s25.07 120 56 120z"/><path d="m376 272a120.005 120.005 0 0 1 -120 120c30.93 0 56-53.73 56-120s-25.07-120-56-120a120.005 120.005 0 0 1 120 120z"/></g><g fill="#004fac"><path d="m476 56h-440a28.031 28.031 0 0 0 -28 28v344a28.031 28.031 0 0 0 28 28h440a28.031 28.031 0 0 0 28-28v-344a28.031 28.031 0 0 0 -28-28zm12 372a12.01 12.01 0 0 1 -12 12h-440a12.01 12.01 0 0 1 -12-12v-308h464zm0-324h-464v-20a12.01 12.01 0 0 1 12-12h440a12.01 12.01 0 0 1 12 12z"/><path d="m40 96h8a8 8 0 0 0 0-16h-8a8 8 0 0 0 0 16z"/><path d="m72 96h8a8 8 0 0 0 0-16h-8a8 8 0 0 0 0 16z"/><path d="m104 96h8a8 8 0 0 0 0-16h-8a8 8 0 0 0 0 16z"/><path d="m440 416h-72a8 8 0 0 0 0 16h72a8 8 0 0 0 0-16z"/><path d="m472 416h-8a8 8 0 0 0 0 16h8a8 8 0 0 0 0-16z"/><path d="m256 144a128 128 0 1 0 128 128 128.144 128.144 0 0 0 -128-128zm-36.62 22.15a106.409 106.409 0 0 0 -10.23 17.61c-10.16 21.79-16.12 50.04-17.02 80.24h-47.84a112.25 112.25 0 0 1 75.09-97.85zm-75.09 113.85h47.84c.9 30.2 6.86 58.45 17.02 80.24a106.409 106.409 0 0 0 10.23 17.61 112.25 112.25 0 0 1 -75.09-97.85zm103.71 102.24c-8.82-3.85-17.39-13.86-24.35-28.77-9.21-19.75-14.63-45.6-15.51-73.47h39.86zm0-118.24h-39.86c.88-27.87 6.3-53.72 15.51-73.47 6.96-14.91 15.53-24.93 24.35-28.77zm119.71 0h-47.84c-.9-30.2-6.86-58.45-17.02-80.24a106.409 106.409 0 0 0 -10.23-17.61 112.25 112.25 0 0 1 75.09 97.85zm-103.71-102.24c8.82 3.84 17.39 13.86 24.35 28.77 9.21 19.75 14.63 45.6 15.51 73.47h-39.86zm0 220.48v-102.24h39.86c-.88 27.87-6.3 53.72-15.51 73.47-6.96 14.91-15.53 24.92-24.35 28.77zm28.62-4.39a106.409 106.409 0 0 0 10.23-17.61c10.16-21.79 16.12-50.04 17.02-80.24h47.84a112.25 112.25 0 0 1 -75.09 97.85z"/></g></g></svg>