<svg height="512" viewBox="0 0 512 512" width="512" xmlns="http://www.w3.org/2000/svg"><g><g fill="#57a4ff"><path d="m40 40h24v24h-24z"/><path d="m40 448h24v24h-24z"/><path d="m88 88h152v80h-152z"/><path d="m88 200h152v224h-152z"/><path d="m272 88h152v336h-152z"/><path d="m448 40h24v24h-24z"/><path d="m448 448h24v24h-24z"/><path d="m16 16h48v48h-48z"/><path d="m448 16h48v48h-48z"/><path d="m16 448h48v48h-48z"/><path d="m448 448h48v48h-48z"/><path d="m88 88h152v80h-152z"/><path d="m88 200h152v224h-152z"/><path d="m272 88h152v336h-152z"/></g><g fill="#004fac"><path d="m496 72a8 8 0 0 0 8-8v-48a8 8 0 0 0 -8-8h-48a8 8 0 0 0 -8 8v16h-368v-16a8 8 0 0 0 -8-8h-48a8 8 0 0 0 -8 8v48a8 8 0 0 0 8 8h16v368h-16a8 8 0 0 0 -8 8v48a8 8 0 0 0 8 8h48a8 8 0 0 0 8-8v-16h368v16a8 8 0 0 0 8 8h48a8 8 0 0 0 8-8v-48a8 8 0 0 0 -8-8h-16v-368zm-472-16v-32h32v32zm32 432h-32v-32h32zm384-40v16h-368v-16a8 8 0 0 0 -8-8h-16v-368h16a8 8 0 0 0 8-8v-16h368v16a8 8 0 0 0 8 8h16v368h-16a8 8 0 0 0 -8 8zm48 8v32h-32v-32zm-32-400v-32h32v32z"/><path d="m240 80h-152a8 8 0 0 0 -8 8v80a8 8 0 0 0 8 8h152a8 8 0 0 0 8-8v-80a8 8 0 0 0 -8-8zm-8 80h-136v-64h136z"/><path d="m240 192h-152a8 8 0 0 0 -8 8v224a8 8 0 0 0 8 8h152a8 8 0 0 0 8-8v-224a8 8 0 0 0 -8-8zm-8 224h-136v-208h136z"/><path d="m424 80h-152a8 8 0 0 0 -8 8v336a8 8 0 0 0 8 8h152a8 8 0 0 0 8-8v-336a8 8 0 0 0 -8-8zm-8 336h-136v-320h136z"/></g></g></svg>