<svg height="512" viewBox="0 0 512 512" width="512" xmlns="http://www.w3.org/2000/svg"><g><g fill="#57a4ff"><path d="m216 432h80v24h-80z"/><path d="m216 432h80v24h-80z"/><path d="m176 264h160v32h-160z"/><path d="m177.61 168a79.589 79.589 0 0 1 -1.61-16q0-4.05.39-8h56.99a23.99 23.99 0 0 0 45.24 0h56.99q.39 3.945.39 8a79.947 79.947 0 0 1 -32 64.01v-.01a48 48 0 0 0 -96 0v.01a79.992 79.992 0 0 1 -30.39-48.01z"/><path d="m456 164v268h-400v-268a19.994 19.994 0 0 1 20-20h36v24h-32v240h352v-240h-32v-24h36a19.994 19.994 0 0 1 20 20z"/><path d="m177.61 168h78.39a48 48 0 0 0 -48 48v.01a79.992 79.992 0 0 1 -30.39-48.01z"/><path d="m334.39 168a79.992 79.992 0 0 1 -30.39 48.01v-.01a48 48 0 0 0 -48-48z"/><path d="m176 264h160v32h-160z"/><path d="m335.61 144a80.012 80.012 0 0 0 -159.22 0q-.39 3.945-.39 8a79.947 79.947 0 0 0 32 64.01v-.01a48 48 0 0 1 96 0v.01a79.947 79.947 0 0 0 32-64.01q0-4.05-.39-8zm-102.23 0a23.6 23.6 0 0 1 -1.38-8 24 24 0 0 1 48 0 23.6 23.6 0 0 1 -1.38 8 23.99 23.99 0 0 1 -45.24 0z"/><path d="m176 264h160v32h-160z"/><path d="m335.61 144a80.012 80.012 0 0 0 -159.22 0q-.39 3.945-.39 8a79.947 79.947 0 0 0 32 64.01v-.01a48 48 0 0 1 96 0v.01a79.947 79.947 0 0 0 32-64.01q0-4.05-.39-8zm-102.23 0a23.6 23.6 0 0 1 -1.38-8 24 24 0 0 1 48 0 23.6 23.6 0 0 1 -1.38 8 23.99 23.99 0 0 1 -45.24 0z"/><path d="m176 264h160v32h-160z"/></g><g fill="#004fac"><path d="m496 424h-32v-260a28.031 28.031 0 0 0 -28-28h-28v-96a8 8 0 0 0 -8-8h-288a8 8 0 0 0 -8 8v96h-28a28.031 28.031 0 0 0 -28 28v260h-32a8 8 0 0 0 -8 8v28a28.031 28.031 0 0 0 28 28h440a28.031 28.031 0 0 0 28-28v-28a8 8 0 0 0 -8-8zm-88-248h16v224h-16zm-288-128h272v352h-272zm-56 116a12.01 12.01 0 0 1 12-12h28v8h-24a8 8 0 0 0 -8 8v240a8 8 0 0 0 8 8h352a8 8 0 0 0 8-8v-240a8 8 0 0 0 -8-8h-24v-8h28a12.01 12.01 0 0 1 12 12v260h-384zm40 12v224h-16v-224zm184 264v8h-64v-8zm200 20a12.01 12.01 0 0 1 -12 12h-440a12.01 12.01 0 0 1 -12-12v-20h184v16a8 8 0 0 0 8 8h80a8 8 0 0 0 8-8v-16h184z"/><path d="m88 448h-48a8 8 0 0 0 0 16h48a8 8 0 0 0 0-16z"/><path d="m120 448h-8a8 8 0 0 0 0 16h8a8 8 0 0 0 0-16z"/><path d="m202.585 221.884a8.009 8.009 0 0 0 1.26.949 87.808 87.808 0 0 0 104.332-.017 7.98 7.98 0 0 0 1.206-.908 88 88 0 1 0 -106.8-.024zm13.618-9.92a40 40 0 0 1 68.083-24.244 39.654 39.654 0 0 1 11.514 24.243 71.812 71.812 0 0 1 -79.595 0zm39.797-59.964a16 16 0 1 1 16-16 16.019 16.019 0 0 1 -16 16zm0-72a71.952 71.952 0 0 1 53.668 119.931 56.154 56.154 0 0 0 -36.189-37.147 32 32 0 1 0 -34.933.016 56.23 56.23 0 0 0 -36.192 37.156 71.952 71.952 0 0 1 53.646-119.956z"/><path d="m176 304h160a8 8 0 0 0 8-8v-32a8 8 0 0 0 -8-8h-160a8 8 0 0 0 -8 8v32a8 8 0 0 0 8 8zm8-32h144v16h-144z"/><path d="m232 320a8 8 0 0 0 0 16h48a8 8 0 0 0 0-16z"/><path d="m176 360h160a8 8 0 0 0 0-16h-160a8 8 0 0 0 0 16z"/><path d="m304 368h-96a8 8 0 0 0 0 16h96a8 8 0 0 0 0-16z"/></g></g></svg>