<svg height="512" viewBox="0 0 512 512" width="512" xmlns="http://www.w3.org/2000/svg"><g><g fill="#57a4ff"><g><path d="m496 368v28a19.994 19.994 0 0 1 -20 20h-440a19.994 19.994 0 0 1 -20-20v-28z"/><path d="m152 464h208v24h-208z"/></g><path d="m456 44v28h-400v-28a19.994 19.994 0 0 1 20-20h360a19.994 19.994 0 0 1 20 20z"/><path d="m56 72h400v8h-400z"/></g><g fill="#004fac"><path d="m476 72h-12v-28a28.031 28.031 0 0 0 -28-28h-360a28.031 28.031 0 0 0 -28 28v28h-12a28.031 28.031 0 0 0 -28 28v296a28.031 28.031 0 0 0 28 28h154.56l-5.34 32h-33.22a8 8 0 0 0 -8 8v16h-32a8 8 0 0 0 0 16h288a8 8 0 0 0 0-16h-32v-16a8 8 0 0 0 -8-8h-33.22l-5.34-32h154.56a28.031 28.031 0 0 0 28-28v-296a28.031 28.031 0 0 0 -28-28zm-412-28a12.01 12.01 0 0 1 12-12h360a12.01 12.01 0 0 1 12 12v20h-384zm0 36h384v212a12.01 12.01 0 0 1 -12 12h-360a12.01 12.01 0 0 1 -12-12zm288 392v8h-192v-8zm-150.56-16 5.34-32h98.44l5.34 32zm286.56-60a12.01 12.01 0 0 1 -12 12h-440a12.01 12.01 0 0 1 -12-12v-20h464zm0-36h-464v-260a12.01 12.01 0 0 1 12-12h12v204a28.031 28.031 0 0 0 28 28h360a28.031 28.031 0 0 0 28-28v-204h12a12.01 12.01 0 0 1 12 12z"/><path d="m96 384h-48a8 8 0 0 0 0 16h48a8 8 0 0 0 0-16z"/><path d="m128 384h-8a8 8 0 0 0 0 16h8a8 8 0 0 0 0-16z"/><path d="m80 56h8a8 8 0 0 0 0-16h-8a8 8 0 0 0 0 16z"/><path d="m112 56h8a8 8 0 0 0 0-16h-8a8 8 0 0 0 0 16z"/><path d="m144 56h8a8 8 0 0 0 0-16h-8a8 8 0 0 0 0 16z"/></g></g></svg>