<svg height="512" viewBox="0 0 512 512" width="512" xmlns="http://www.w3.org/2000/svg"><g><g fill="#57a4ff"><path d="m72 144h64v24h-64z"/><path d="m376 472h64v24h-64z"/><rect height="48" rx="8" width="112" x="360" y="72"/><circle cx="384" cy="96" r="8"/><circle cx="408" cy="96" r="8"/><rect height="48" rx="8" width="112" x="360" y="120"/><circle cx="384" cy="144" r="8"/><circle cx="408" cy="144" r="8"/><rect height="48" rx="8" width="112" x="40" y="344"/><circle cx="64" cy="368" r="8"/><circle cx="88" cy="368" r="8"/><rect height="48" rx="8" width="112" x="40" y="392"/><circle cx="64" cy="416" r="8"/><circle cx="88" cy="416" r="8"/></g><g fill="#004fac"><path d="m488 336h-64v-136h8a8 8 0 0 0 8-8v-16h24a16.021 16.021 0 0 0 16-16v-32a15.864 15.864 0 0 0 -2.17-8 15.864 15.864 0 0 0 2.17-8v-32a16.021 16.021 0 0 0 -16-16h-96a16.021 16.021 0 0 0 -16 16v8h-152v-64a16.021 16.021 0 0 0 -16-16h-160a16.021 16.021 0 0 0 -16 16v112a16.021 16.021 0 0 0 16 16h40v8h-8a8 8 0 0 0 0 16h32v136h-8a8 8 0 0 0 -8 8v16h-24a16.021 16.021 0 0 0 -16 16v32a15.864 15.864 0 0 0 2.17 8 15.864 15.864 0 0 0 -2.17 8v32a16.021 16.021 0 0 0 16 16h96a16.021 16.021 0 0 0 16-16v-8h152v40a16.021 16.021 0 0 0 16 16h40v8h-8a8 8 0 0 0 0 16h96a8 8 0 0 0 0-16h-8v-8h40a16.021 16.021 0 0 0 16-16v-112a16.021 16.021 0 0 0 -16-16zm-64-152h-16v-8h16zm-56-104h96l.01 32h-96.01zm0 48h96l.01 32h-96.01zm-344 8v-112h160l.01 71.88c0 .04-.01.08-.01.12s.01.08.01.12v39.88zm104 16v8h-24v-8zm-48 8v-8h8v8zm8 168h16v8h-16zm56 104h-96v-32h96v16.1l.01 15.9zm0-48h-96v-32h96l.01 32zm168-32v56h-152v-8a15.864 15.864 0 0 0 -2.17-8 15.864 15.864 0 0 0 2.17-8v-32a16.021 16.021 0 0 0 -16-16h-24v-16a8 8 0 0 0 -8-8h-8v-136h48a8 8 0 0 0 0-16h-8v-8h40a16.021 16.021 0 0 0 16-16v-32h152v8a15.864 15.864 0 0 0 2.17 8 15.864 15.864 0 0 0 -2.17 8v32a16.021 16.021 0 0 0 16 16h24v16a8 8 0 0 0 8 8h8v136h-80a16.021 16.021 0 0 0 -16 16zm120 136h-48v-8h48zm56-24h-160v-112h160l.01 112z"/><circle cx="384" cy="96" r="8"/><circle cx="408" cy="96" r="8"/><circle cx="384" cy="144" r="8"/><circle cx="408" cy="144" r="8"/><circle cx="64" cy="368" r="8"/><circle cx="88" cy="368" r="8"/><circle cx="64" cy="416" r="8"/><circle cx="88" cy="416" r="8"/></g></g></svg>