<svg height="512" viewBox="0 0 512 512" width="512" xmlns="http://www.w3.org/2000/svg"><g><g fill="#57a4ff"><path d="m332 208h-152a12 12 0 0 0 -12 12v96a12 12 0 0 0 12 12h152a12 12 0 0 0 12-12v-96a12 12 0 0 0 -12-12zm-76 64a16 16 0 1 1 16-16 16 16 0 0 1 -16 16z"/><circle cx="64" cy="400" r="16"/><circle cx="128" cy="400" r="16"/><circle cx="192" cy="400" r="16"/><circle cx="256" cy="400" r="16"/><circle cx="320" cy="400" r="16"/><circle cx="384" cy="400" r="16"/><circle cx="448" cy="400" r="16"/><circle cx="256" cy="400" r="16"/><circle cx="192" cy="400" r="16"/><circle cx="128" cy="400" r="16"/><circle cx="64" cy="400" r="16"/><circle cx="448" cy="400" r="16"/><circle cx="384" cy="400" r="16"/><circle cx="320" cy="400" r="16"/></g><g fill="#004fac"><path d="m332 200h-4v-64a72 72 0 0 0 -144 0v64h-4a20.02 20.02 0 0 0 -20 20v96a20.02 20.02 0 0 0 20 20h152a20.02 20.02 0 0 0 20-20v-96a20.02 20.02 0 0 0 -20-20zm-132-64a56 56 0 0 1 112 0v64h-16v-64a40 40 0 0 0 -80 0v64h-16zm80 0v64h-48v-64a24 24 0 0 1 48 0zm56 180a4 4 0 0 1 -4 4h-152a4 4 0 0 1 -4-4v-96a4 4 0 0 1 4-4h152a4 4 0 0 1 4 4z"/><path d="m248 278.624v17.376a8 8 0 0 0 16 0v-17.376a24 24 0 1 0 -16 0zm8-30.624a8 8 0 1 1 -8 8 8.009 8.009 0 0 1 8-8z"/><path d="m496 352h-480a8 8 0 0 0 -8 8v80a8 8 0 0 0 8 8h480a8 8 0 0 0 8-8v-80a8 8 0 0 0 -8-8zm-8 80h-464v-64h464z"/><path d="m256 424a24 24 0 1 0 -24-24 24.028 24.028 0 0 0 24 24zm0-32a8 8 0 1 1 -8 8 8.009 8.009 0 0 1 8-8z"/><path d="m192 424a24 24 0 1 0 -24-24 24.028 24.028 0 0 0 24 24zm0-32a8 8 0 1 1 -8 8 8.009 8.009 0 0 1 8-8z"/><path d="m128 424a24 24 0 1 0 -24-24 24.028 24.028 0 0 0 24 24zm0-32a8 8 0 1 1 -8 8 8.009 8.009 0 0 1 8-8z"/><path d="m64 424a24 24 0 1 0 -24-24 24.028 24.028 0 0 0 24 24zm0-32a8 8 0 1 1 -8 8 8.009 8.009 0 0 1 8-8z"/><path d="m448 424a24 24 0 1 0 -24-24 24.028 24.028 0 0 0 24 24zm0-32a8 8 0 1 1 -8 8 8.009 8.009 0 0 1 8-8z"/><path d="m384 424a24 24 0 1 0 -24-24 24.028 24.028 0 0 0 24 24zm0-32a8 8 0 1 1 -8 8 8.009 8.009 0 0 1 8-8z"/><path d="m320 424a24 24 0 1 0 -24-24 24.028 24.028 0 0 0 24 24zm0-32a8 8 0 1 1 -8 8 8.009 8.009 0 0 1 8-8z"/></g></g></svg>