<svg height="512" viewBox="0 0 512 512" width="512" xmlns="http://www.w3.org/2000/svg"><g><g fill="#57a4ff"><g><path d="m368 288v-32h-41.81a71.6 71.6 0 0 0 -9.24-22.32l29.56-29.56-22.63-22.63-29.56 29.56a71.6 71.6 0 0 0 -22.32-9.24v-41.81h-32v41.81a71.6 71.6 0 0 0 -22.32 9.24l-29.56-29.56-22.63 22.63 29.56 29.56a71.6 71.6 0 0 0 -9.24 22.32h-41.81v32h41.81a71.6 71.6 0 0 0 9.24 22.32l-29.56 29.56 22.63 22.63 29.56-29.56a71.6 71.6 0 0 0 22.32 9.24v41.81h32v-41.81a71.6 71.6 0 0 0 22.32-9.24l29.56 29.56 22.63-22.63-29.56-29.56a71.6 71.6 0 0 0 9.24-22.32zm-112 16a32 32 0 1 1 32-32 32 32 0 0 1 -32 32z"/><path d="m496 84v28h-480v-28a19.994 19.994 0 0 1 20-20h440a19.994 19.994 0 0 1 20 20z"/></g><path d="m368 288v-32h-41.81a71.6 71.6 0 0 0 -9.24-22.32l29.56-29.56-22.63-22.63-29.56 29.56a71.6 71.6 0 0 0 -22.32-9.24v-41.81h-32v41.81a71.6 71.6 0 0 0 -22.32 9.24l-29.56-29.56-22.63 22.63 29.56 29.56a71.6 71.6 0 0 0 -9.24 22.32h-41.81v32h41.81a71.6 71.6 0 0 0 9.24 22.32l-29.56 29.56 22.63 22.63 29.56-29.56a71.6 71.6 0 0 0 22.32 9.24v41.81h32v-41.81a71.6 71.6 0 0 0 22.32-9.24l29.56 29.56 22.63-22.63-29.56-29.56a71.6 71.6 0 0 0 9.24-22.32zm-112 16a32 32 0 1 1 32-32 32 32 0 0 1 -32 32z"/></g><g fill="#004fac"><path d="m476 56h-440a28.031 28.031 0 0 0 -28 28v344a28.031 28.031 0 0 0 28 28h440a28.031 28.031 0 0 0 28-28v-344a28.031 28.031 0 0 0 -28-28zm12 372a12.01 12.01 0 0 1 -12 12h-440a12.01 12.01 0 0 1 -12-12v-308h464zm0-324h-464v-20a12.01 12.01 0 0 1 12-12h440a12.01 12.01 0 0 1 12 12z"/><path d="m40 96h8a8 8 0 0 0 0-16h-8a8 8 0 0 0 0 16z"/><path d="m72 96h8a8 8 0 0 0 0-16h-8a8 8 0 0 0 0 16z"/><path d="m104 96h8a8 8 0 0 0 0-16h-8a8 8 0 0 0 0 16z"/><path d="m440 416h-72a8 8 0 0 0 0 16h72a8 8 0 0 0 0-16z"/><path d="m472 416h-8a8 8 0 0 0 0 16h8a8 8 0 0 0 0-16z"/><path d="m368 248h-35.69a78.673 78.673 0 0 0 -5.38-12.99l25.24-25.24a8 8 0 0 0 0-11.31l-22.63-22.63a8 8 0 0 0 -11.31 0l-25.24 25.24a78.673 78.673 0 0 0 -12.99-5.38v-35.69a8 8 0 0 0 -8-8h-32a8 8 0 0 0 -8 8v35.69a78.673 78.673 0 0 0 -12.99 5.38l-25.24-25.24a8 8 0 0 0 -11.31 0l-22.63 22.63a8 8 0 0 0 0 11.31l25.24 25.24a78.673 78.673 0 0 0 -5.38 12.99h-35.69a8 8 0 0 0 -8 8v32a8 8 0 0 0 8 8h35.69a78.673 78.673 0 0 0 5.38 12.99l-25.24 25.24a8 8 0 0 0 0 11.31l22.63 22.63a8 8 0 0 0 11.31 0l25.24-25.24a78.673 78.673 0 0 0 12.99 5.38v35.69a8 8 0 0 0 8 8h32a8 8 0 0 0 8-8v-35.69a78.673 78.673 0 0 0 12.99-5.38l25.24 25.24a8 8 0 0 0 11.31 0l22.63-22.63a8 8 0 0 0 0-11.31l-25.24-25.24a78.673 78.673 0 0 0 5.38-12.99h35.69a8 8 0 0 0 8-8v-32a8 8 0 0 0 -8-8zm-8 32h-33.81a8.01 8.01 0 0 0 -7.8 6.23 63.469 63.469 0 0 1 -8.21 19.82 8.018 8.018 0 0 0 1.11 9.93l23.91 23.9-11.32 11.32-23.9-23.91a8 8 0 0 0 -9.93-1.11 63.469 63.469 0 0 1 -19.82 8.21 8.01 8.01 0 0 0 -6.23 7.8v33.81h-16v-33.81a8.01 8.01 0 0 0 -6.23-7.8 63.469 63.469 0 0 1 -19.82-8.21 8 8 0 0 0 -9.93 1.11l-23.9 23.91-11.32-11.32 23.91-23.9a8.018 8.018 0 0 0 1.11-9.93 63.469 63.469 0 0 1 -8.21-19.82 8.01 8.01 0 0 0 -7.8-6.23h-33.81v-16h33.81a8.01 8.01 0 0 0 7.8-6.23 63.469 63.469 0 0 1 8.21-19.82 8.018 8.018 0 0 0 -1.11-9.93l-23.91-23.9 11.32-11.32 23.9 23.91a8.016 8.016 0 0 0 9.93 1.11 63.469 63.469 0 0 1 19.82-8.21 8.01 8.01 0 0 0 6.23-7.8v-33.81h16v33.81a8.01 8.01 0 0 0 6.23 7.8 63.469 63.469 0 0 1 19.82 8.21 8.016 8.016 0 0 0 9.93-1.11l23.9-23.91 11.32 11.32-23.91 23.9a8.018 8.018 0 0 0 -1.11 9.93 63.469 63.469 0 0 1 8.21 19.82 8.01 8.01 0 0 0 7.8 6.23h33.81z"/><path d="m256 232a40 40 0 1 0 40 40 40.045 40.045 0 0 0 -40-40zm0 64a24 24 0 1 1 24-24 24.028 24.028 0 0 1 -24 24z"/></g></g></svg>