<svg height="512" viewBox="0 0 512 512" width="512" xmlns="http://www.w3.org/2000/svg"><g><g fill="#57a4ff"><path d="m184 224v64h-64a63.982 63.982 0 0 1 64-64z"/><path d="m240 256h32v80h-32z"/><circle cx="256" cy="144" r="24"/><path d="m392 288h-64v-64a63.982 63.982 0 0 1 64 64z"/><path d="m496 376v28a19.994 19.994 0 0 1 -20 20h-440a19.994 19.994 0 0 1 -20-20v-28z"/><path d="m152 472h208v24h-208z"/><path d="m240 256h32v48h-32z"/><circle cx="256" cy="144" r="24"/><circle cx="256" cy="144" r="24"/><circle cx="256" cy="144" r="24"/><path d="m240 304h32v32h-32z"/><path d="m184 224v64h-64a63.982 63.982 0 0 1 64-64z"/><path d="m392 288h-64v-64a63.982 63.982 0 0 1 64 64z"/><path d="m240 256h32v80h-32z"/></g><g fill="#004fac"><path d="m476 80h-156.16a168.14 168.14 0 0 0 -40.22-53.71l-18.3-16.27a8.023 8.023 0 0 0 -10.64 0l-18.29 16.27a168.025 168.025 0 0 0 -40.23 53.71h-156.16a28.031 28.031 0 0 0 -28 28v296a28.031 28.031 0 0 0 28 28h154.56l-5.34 32h-33.22a8 8 0 0 0 -8 8v16h-32a8 8 0 0 0 0 16h288a8 8 0 0 0 0-16h-32v-16a8 8 0 0 0 -8-8h-33.22l-5.34-32h154.56a28.031 28.031 0 0 0 28-28v-296a28.031 28.031 0 0 0 -28-28zm-284 71.85a152.066 152.066 0 0 1 51.02-113.6l12.98-11.55 12.99 11.55a152.092 152.092 0 0 1 51.01 113.6v144.15h-40v-40a8 8 0 0 0 -8-8h-32a8 8 0 0 0 -8 8v40h-40zm48 192.15h32a8 8 0 0 0 8-8v-24h24v56h-96v-56h24v24a8 8 0 0 0 8 8zm8-16v-64h16v64zm-224-220a12.01 12.01 0 0 1 12-12h149.58a167.749 167.749 0 0 0 -9.58 55.85v64.61a72.083 72.083 0 0 0 -64 71.54 8 8 0 0 0 8 8h56v8a8 8 0 0 0 8 8h8v56h-168zm152 124.57v47.43h-47.43a56.132 56.132 0 0 1 47.43-47.43zm176 247.43v8h-192v-8zm-150.56-16 5.34-32h98.44l5.34 32zm286.56-60a12.01 12.01 0 0 1 -12 12h-440a12.01 12.01 0 0 1 -12-12v-20h464zm0-36h-168v-56h8a8 8 0 0 0 8-8v-8h56a8 8 0 0 0 8-8 72.083 72.083 0 0 0 -64-71.54v-64.61a167.749 167.749 0 0 0 -9.58-55.85h149.58a12.01 12.01 0 0 1 12 12zm-152-88v-47.43a56.132 56.132 0 0 1 47.43 47.43z"/><path d="m96 392h-48a8 8 0 0 0 0 16h48a8 8 0 0 0 0-16z"/><path d="m128 392h-8a8 8 0 0 0 0 16h8a8 8 0 0 0 0-16z"/><path d="m256 200a56 56 0 1 0 -56-56 56.064 56.064 0 0 0 56 56zm0-96a40 40 0 1 1 -40 40 40.045 40.045 0 0 1 40-40z"/><path d="m256 176a32 32 0 1 0 -32-32 32.036 32.036 0 0 0 32 32zm0-48a16 16 0 1 1 -16 16 16.019 16.019 0 0 1 16-16z"/></g></g></svg>