<svg height="512" viewBox="0 0 512 512" width="512" xmlns="http://www.w3.org/2000/svg"><g><g fill="#57a4ff"><g><circle cx="208" cy="200" r="24"/><path d="m208 88a112 112 0 1 0 112 112 111.995 111.995 0 0 0 -112-112zm0 192a80 80 0 1 1 80-80 80 80 0 0 1 -80 80z"/><path d="m408 168-16 32h-40l16-32z"/><path d="m496 344v28a19.994 19.994 0 0 1 -20 20h-440a19.994 19.994 0 0 1 -20-20v-28z"/><path d="m152 440h208v24h-208z"/></g><circle cx="208" cy="200" r="24"/><path d="m208 88a112 112 0 1 0 112 112 111.995 111.995 0 0 0 -112-112zm0 192a80 80 0 1 1 80-80 80 80 0 0 1 -80 80z"/><circle cx="208" cy="200" r="24"/><circle cx="208" cy="200" r="24"/><path d="m408 168-16 32h-40l16-32z"/></g><g fill="#004fac"><path d="m476 48h-440a28.031 28.031 0 0 0 -28 28v296a28.031 28.031 0 0 0 28 28h154.56l-5.34 32h-33.22a8 8 0 0 0 -8 8v16h-32a8 8 0 0 0 0 16h288a8 8 0 0 0 0-16h-32v-16a8 8 0 0 0 -8-8h-33.22l-5.34-32h154.56a28.031 28.031 0 0 0 28-28v-296a28.031 28.031 0 0 0 -28-28zm-124 400v8h-192v-8zm-150.56-16 5.34-32h98.44l5.34 32zm286.56-60a12.01 12.01 0 0 1 -12 12h-440a12.01 12.01 0 0 1 -12-12v-20h464zm0-36h-464v-260a12.01 12.01 0 0 1 12-12h440a12.01 12.01 0 0 1 12 12z"/><path d="m96 360h-48a8 8 0 0 0 0 16h48a8 8 0 0 0 0-16z"/><path d="m128 360h-8a8 8 0 0 0 0 16h8a8 8 0 0 0 0-16z"/><path d="m208 320a120.151 120.151 0 0 0 119.727-112h19.329l13.789 27.578a8 8 0 0 0 7.155 4.422h40a8 8 0 0 0 7.155-11.578l-14.211-28.422 14.211-28.422a8 8 0 0 0 -7.155-11.578h-40a8 8 0 0 0 -7.155 4.422l-13.789 27.578h-19.329a120 120 0 1 0 -119.727 128zm164.944-96-8-16h22.112l8 16zm0-48h22.112l-8 16h-22.112zm-164.944-80a104.139 104.139 0 0 1 103.7 96h-16.067a88 88 0 1 0 0 16h16.067a104 104 0 1 1 -103.7-112zm30.987 96a32 32 0 1 0 0 16h40.558a72 72 0 1 1 0-16zm-30.987 16h13.835a16 16 0 1 1 0-16h-13.835a8 8 0 0 0 0 16z"/></g></g></svg>