<svg height="512" viewBox="0 0 512 512" width="512" xmlns="http://www.w3.org/2000/svg"><g><g fill="#57a4ff"><path d="m40 40h24v24h-24z"/><path d="m40 448h24v24h-24z"/><path d="m208 144h-24v-56h144v56h-24v-24h-32v88h32v24h-96v-24h32v-88h-32z"/><path d="m136 264h240v32h-240z"/><path d="m448 40h24v24h-24z"/><path d="m448 448h24v24h-24z"/><path d="m16 16h48v48h-48z"/><path d="m448 16h48v48h-48z"/><path d="m16 448h48v48h-48z"/><path d="m448 448h48v48h-48z"/><path d="m328 88v56h-24v-24h-32v88h32v24h-96v-24h32v-88h-32v24h-24v-56z"/><path d="m136 264h240v32h-240z"/></g><g fill="#004fac"><path d="m496 72a8 8 0 0 0 8-8v-48a8 8 0 0 0 -8-8h-48a8 8 0 0 0 -8 8v16h-368v-16a8 8 0 0 0 -8-8h-48a8 8 0 0 0 -8 8v48a8 8 0 0 0 8 8h16v368h-16a8 8 0 0 0 -8 8v48a8 8 0 0 0 8 8h48a8 8 0 0 0 8-8v-16h368v16a8 8 0 0 0 8 8h48a8 8 0 0 0 8-8v-48a8 8 0 0 0 -8-8h-16v-368zm-472-16v-32h32v32zm32 432h-32v-32h32zm384-40v16h-368v-16a8 8 0 0 0 -8-8h-16v-368h16a8 8 0 0 0 8-8v-16h368v16a8 8 0 0 0 8 8h16v368h-16a8 8 0 0 0 -8 8zm48 8v32h-32v-32zm-32-400v-32h32v32z"/><path d="m328 80h-144a8 8 0 0 0 -8 8v56a8 8 0 0 0 8 8h24a8 8 0 0 0 8-8v-16h16v72h-24a8 8 0 0 0 -8 8v24a8 8 0 0 0 8 8h96a8 8 0 0 0 8-8v-24a8 8 0 0 0 -8-8h-24v-72h16v16a8 8 0 0 0 8 8h24a8 8 0 0 0 8-8v-56a8 8 0 0 0 -8-8zm-8 56h-8v-16a8 8 0 0 0 -8-8h-32a8 8 0 0 0 -8 8v88a8 8 0 0 0 8 8h24v8h-80v-8h24a8 8 0 0 0 8-8v-88a8 8 0 0 0 -8-8h-32a8 8 0 0 0 -8 8v16h-8v-40h128z"/><path d="m136 304h240a8 8 0 0 0 8-8v-32a8 8 0 0 0 -8-8h-240a8 8 0 0 0 -8 8v32a8 8 0 0 0 8 8zm8-32h224v16h-224z"/><path d="m184 320a8 8 0 0 0 0 16h144a8 8 0 0 0 0-16z"/><path d="m416 352h-320a8 8 0 0 0 0 16h320a8 8 0 0 0 0-16z"/><path d="m384 384h-256a8 8 0 0 0 0 16h256a8 8 0 0 0 0-16z"/><path d="m320 416h-128a8 8 0 0 0 0 16h128a8 8 0 0 0 0-16z"/></g></g></svg>