<svg height="512" viewBox="0 0 512 512" width="512" xmlns="http://www.w3.org/2000/svg"><g><g fill="#57a4ff"><path d="m224 64v128h-208v-152h64l4.8 7.2 11.2 16.8z"/><path d="m84.8 47.2-52.8-7.2h48z"/><path d="m376 472h64v24h-64z"/><rect height="48" rx="8" width="112" x="56" y="344"/><circle cx="80" cy="368" r="8"/><circle cx="104" cy="368" r="8"/><rect height="48" rx="8" width="112" x="56" y="392"/><circle cx="80" cy="416" r="8"/><circle cx="104" cy="416" r="8"/><rect height="48" rx="8" width="112" x="56" y="440"/><circle cx="80" cy="464" r="8"/><circle cx="104" cy="464" r="8"/><path d="m488 176-48 48v-48z"/><path d="m488 176-48 48v-48z"/></g><g fill="#004fac"><path d="m488 336h-72v-104h24a8.008 8.008 0 0 0 5.66-2.34l48-48a8.008 8.008 0 0 0 2.34-5.66v-160a8 8 0 0 0 -8-8h-160a8 8 0 0 0 -8 8v88h-88v-40a8 8 0 0 0 -8-8h-8v-40a8 8 0 0 0 -8-8h-176a8 8 0 0 0 -8 8v16h-8a8 8 0 0 0 -8 8v152a8 8 0 0 0 8 8h88v112h-8a8 8 0 0 0 -8 8v16h-24a16.021 16.021 0 0 0 -16 16v32a15.958 15.958 0 0 0 2.16 8 15.958 15.958 0 0 0 -2.16 8v32a15.958 15.958 0 0 0 2.16 8 15.958 15.958 0 0 0 -2.16 8v32a16.021 16.021 0 0 0 16 16h96a16.021 16.021 0 0 0 16-16v-32a15.958 15.958 0 0 0 -2.16-8 15.958 15.958 0 0 0 2.16-8v-8h136v40a16.021 16.021 0 0 0 16 16h40v8h-8a8 8 0 0 0 0 16h96a8 8 0 0 0 0-16h-8v-8h40a16.021 16.021 0 0 0 16-16v-112a16.021 16.021 0 0 0 -16-16zm-40-131.31v-20.69h20.69zm-112-180.69h144v144h-40a8 8 0 0 0 -8 8v40h-96zm-296 0h160v32h-99.72l-13.62-20.44a8.033 8.033 0 0 0 -6.66-3.56h-40zm-16 160v-136h51.72l13.62 20.44a8.033 8.033 0 0 0 6.66 3.56h120v112zm80 144h16v8h-16zm56 152h-96v-32h96l.01 32zm.01-63.9v15.9h-96.01v-32h96l.01 15.9a.5.5 0 0 0 0 .2zm-.01-32.1h-96v-32h96l.01 32zm152-32v56h-136v-8a15.958 15.958 0 0 0 -2.16-8 15.958 15.958 0 0 0 2.16-8v-32a16.021 16.021 0 0 0 -16-16h-24v-16a8 8 0 0 0 -8-8h-8v-112h104a8 8 0 0 0 8-8v-72h88v104a8 8 0 0 0 8 8h72v104h-72a16.021 16.021 0 0 0 -16 16zm120 136h-48v-8h48zm56-24h-160v-112h160l.01 112z"/><circle cx="80" cy="368" r="8"/><circle cx="104" cy="368" r="8"/><circle cx="80" cy="416" r="8"/><circle cx="104" cy="416" r="8"/><circle cx="80" cy="464" r="8"/><circle cx="104" cy="464" r="8"/><path d="m360 56h96a8 8 0 0 0 0-16h-96a8 8 0 0 0 0 16z"/><path d="m360 88h96a8 8 0 0 0 0-16h-96a8 8 0 0 0 0 16z"/><path d="m360 120h96a8 8 0 0 0 0-16h-96a8 8 0 0 0 0 16z"/><path d="m360 152h48a8 8 0 0 0 0-16h-48a8 8 0 0 0 0 16z"/><path d="m440 136h-8a8 8 0 0 0 0 16h8a8 8 0 0 0 0-16z"/></g></g></svg>