<svg height="512" viewBox="0 0 512 512" width="512" xmlns="http://www.w3.org/2000/svg"><g><g fill="#57a4ff"><path d="m216 408h80v24h-80z"/><path d="m216 408h80v24h-80z"/><path d="m436 120h-360a19.994 19.994 0 0 0 -20 20v268h400v-268a19.994 19.994 0 0 0 -20-20zm-4 264h-352v-240h81.34a94.828 94.828 0 0 0 -1.34 16 96 96 0 0 0 192 0 94.828 94.828 0 0 0 -1.34-16h81.34z"/><path d="m352 160a96 96 0 0 1 -192 0 94.828 94.828 0 0 1 1.34-16h189.32a94.828 94.828 0 0 1 1.34 16z"/><path d="m352 160a96 96 0 0 1 -192 0 96.21 96.21 0 0 1 8.71-40 96.032 96.032 0 0 1 174.58 0 96.21 96.21 0 0 1 8.71 40z"/></g><g fill="#004fac"><path d="m496 400h-32v-260a28.031 28.031 0 0 0 -28-28h-87.76a103.966 103.966 0 0 0 -184.48 0h-87.76a28.031 28.031 0 0 0 -28 28v260h-32a8 8 0 0 0 -8 8v28a28.031 28.031 0 0 0 28 28h440a28.031 28.031 0 0 0 28-28v-28a8 8 0 0 0 -8-8zm-240-328a88 88 0 1 1 -88 88 88.1 88.1 0 0 1 88-88zm0 192a104.112 104.112 0 0 0 104-104q0-4.035-.3-8h64.3v224h-336v-224h64.3q-.3 3.96-.3 8a104.112 104.112 0 0 0 104 104zm-192-124a12.01 12.01 0 0 1 12-12h81.04q-1.275 3.93-2.24 8h-74.8a8 8 0 0 0 -8 8v240a8 8 0 0 0 8 8h352a8 8 0 0 0 8-8v-240a8 8 0 0 0 -8-8h-74.8q-.96-4.065-2.24-8h81.04a12.01 12.01 0 0 1 12 12v260h-384zm224 276v8h-64v-8zm200 20a12.01 12.01 0 0 1 -12 12h-440a12.01 12.01 0 0 1 -12-12v-20h184v16a8 8 0 0 0 8 8h80a8 8 0 0 0 8-8v-16h184z"/><path d="m88 424h-48a8 8 0 0 0 0 16h48a8 8 0 0 0 0-16z"/><path d="m120 424h-8a8 8 0 0 0 0 16h8a8 8 0 0 0 0-16z"/><path d="m211.562 190.656 24 16a8 8 0 0 0 10.095-1l56-56a8 8 0 0 0 -11.314-11.314l-51.363 51.364-18.542-12.362a8 8 0 1 0 -8.876 13.312z"/></g></g></svg>