<svg height="512" viewBox="0 0 512 512" width="512" xmlns="http://www.w3.org/2000/svg"><g><g fill="#57a4ff"><path d="m216 376h80v24h-80z"/><path d="m216 376h80v24h-80z"/><circle cx="136" cy="184" r="16"/><path d="m160 264h32v32h-32z"/><path d="m240 168h32v32h-32z"/><path d="m320 264h32v32h-32z"/><circle cx="376" cy="184" r="16"/><path d="m436 88h-360a19.994 19.994 0 0 0 -20 20v268h400v-268a19.994 19.994 0 0 0 -20-20zm-4 264h-352v-240h352z"/><circle cx="136" cy="184" r="16"/><path d="m160 264h32v32h-32z"/><path d="m240 168h32v32h-32z"/><path d="m320 264h32v32h-32z"/><circle cx="376" cy="184" r="16"/><path d="m160 264h32v32h-32z"/><path d="m320 264h32v32h-32z"/><path d="m240 168h32v32h-32z"/><circle cx="136" cy="184" r="16"/><circle cx="376" cy="184" r="16"/></g><g fill="#004fac"><path d="m496 368h-32v-260a28.031 28.031 0 0 0 -28-28h-360a28.031 28.031 0 0 0 -28 28v260h-32a8 8 0 0 0 -8 8v28a28.031 28.031 0 0 0 28 28h440a28.031 28.031 0 0 0 28-28v-28a8 8 0 0 0 -8-8zm-432-260a12.01 12.01 0 0 1 12-12h360a12.01 12.01 0 0 1 12 12v260h-384zm224 276v8h-64v-8zm200 20a12.01 12.01 0 0 1 -12 12h-440a12.01 12.01 0 0 1 -12-12v-20h184v16a8 8 0 0 0 8 8h80a8 8 0 0 0 8-8v-16h184z"/><path d="m88 392h-48a8 8 0 0 0 0 16h48a8 8 0 0 0 0-16z"/><path d="m120 392h-8a8 8 0 0 0 0 16h8a8 8 0 0 0 0-16z"/><path d="m440 352v-240a8 8 0 0 0 -8-8h-352a8 8 0 0 0 -8 8v240a8 8 0 0 0 8 8h352a8 8 0 0 0 8-8zm-16-8h-336v-224h336z"/><path d="m136 208a24.039 24.039 0 0 0 22.624-16h46.855a88.388 88.388 0 0 0 -37.108 64h-8.371a8 8 0 0 0 -8 8v32a8 8 0 0 0 8 8h32a8 8 0 0 0 8-8v-32a8 8 0 0 0 -8-8h-7.536a72.289 72.289 0 0 1 47.536-59.887v3.887a8 8 0 0 0 8 8h32a8 8 0 0 0 8-8v-3.887a72.289 72.289 0 0 1 47.536 59.887h-7.536a8 8 0 0 0 -8 8v32a8 8 0 0 0 8 8h32a8 8 0 0 0 8-8v-32a8 8 0 0 0 -8-8h-8.371a88.388 88.388 0 0 0 -37.108-64h46.855a24 24 0 1 0 0-16h-73.376v-8a8 8 0 0 0 -8-8h-32a8 8 0 0 0 -8 8v8h-73.376a24 24 0 1 0 -22.624 32zm48 80h-16v-16h16zm160 0h-16v-16h16zm32-112a8 8 0 1 1 -8 8 8.009 8.009 0 0 1 8-8zm-128 0h16v16h-16zm-112 0a8 8 0 1 1 -8 8 8.009 8.009 0 0 1 8-8z"/></g></g></svg>