<svg height="512" viewBox="0 0 512 512" width="512" xmlns="http://www.w3.org/2000/svg"><g><g fill="#57a4ff"><g><path d="m373.56 345.62-100.46-165.46a20.005 20.005 0 0 0 -34.2 0l-100.46 165.46a20 20 0 0 0 17.1 30.38h200.92a20 20 0 0 0 17.1-30.38zm-101.56 6.38h-32v-32h32zm0-56h-32v-64h32z"/><path d="m496 84v28h-480v-28a19.994 19.994 0 0 1 20-20h440a19.994 19.994 0 0 1 20 20z"/></g><path d="m373.56 345.62-100.46-165.46a20.005 20.005 0 0 0 -34.2 0l-100.46 165.46a20 20 0 0 0 17.1 30.38h200.92a20 20 0 0 0 17.1-30.38zm-101.56 6.38h-32v-32h32zm0-56h-32v-64h32z"/></g><g fill="#004fac"><path d="m476 56h-440a28.032 28.032 0 0 0 -28 28v344a28.032 28.032 0 0 0 28 28h440a28.032 28.032 0 0 0 28-28v-344a28.032 28.032 0 0 0 -28-28zm-440 16h440a12.013 12.013 0 0 1 12 12v20h-464v-20a12.013 12.013 0 0 1 12-12zm440 368h-440a12.013 12.013 0 0 1 -12-12v-308h464v308a12.013 12.013 0 0 1 -12 12z"/><path d="m40 96h8a8 8 0 0 0 0-16h-8a8 8 0 0 0 0 16z"/><path d="m72 96h8a8 8 0 0 0 0-16h-8a8 8 0 0 0 0 16z"/><path d="m104 96h8a8 8 0 0 0 0-16h-8a8 8 0 0 0 0 16z"/><path d="m440 416h-72a8 8 0 0 0 0 16h72a8 8 0 0 0 0-16z"/><path d="m472 416h-8a8 8 0 0 0 0 16h8a8 8 0 0 0 0-16z"/><path d="m380.861 369.731a27.673 27.673 0 0 0 -.467-28.262l-100.46-165.463a28 28 0 0 0 -47.868 0l-100.46 165.463a28 28 0 0 0 23.935 42.531h200.918a27.675 27.675 0 0 0 24.402-14.269zm-13.944-7.846a11.86 11.86 0 0 1 -10.458 6.115h-200.918a12 12 0 0 1 -10.258-18.228l100.46-165.462a12 12 0 0 1 20.514 0l100.46 165.462a11.861 11.861 0 0 1 .2 12.113z"/><path d="m272 312h-32a8 8 0 0 0 -8 8v32a8 8 0 0 0 8 8h32a8 8 0 0 0 8-8v-32a8 8 0 0 0 -8-8zm-8 32h-16v-16h16z"/><path d="m272 224h-32a8 8 0 0 0 -8 8v64a8 8 0 0 0 8 8h32a8 8 0 0 0 8-8v-64a8 8 0 0 0 -8-8zm-8 64h-16v-48h16z"/></g></g></svg>