<svg height="512" viewBox="0 0 512 512" width="512" xmlns="http://www.w3.org/2000/svg"><g><g fill="#57a4ff"><g><path d="m224 136h-48l24-48z"/><path d="m160 176h80v168h-80z"/><path d="m496 344v28a19.994 19.994 0 0 1 -20 20h-440a19.994 19.994 0 0 1 -20-20v-28z"/><path d="m152 440h208v24h-208z"/></g><path d="m224 136h-48l24-48z"/><path d="m160 176h80v168h-80z"/></g><g fill="#004fac"><path d="m476 48h-440a28.031 28.031 0 0 0 -28 28v296a28.031 28.031 0 0 0 28 28h154.56l-5.34 32h-33.22a8 8 0 0 0 -8 8v16h-32a8 8 0 0 0 0 16h288a8 8 0 0 0 0-16h-32v-16a8 8 0 0 0 -8-8h-33.22l-5.34-32h154.56a28.031 28.031 0 0 0 28-28v-296a28.031 28.031 0 0 0 -28-28zm-124 400v8h-192v-8zm-150.56-16 5.34-32h98.44l5.34 32zm286.56-60a12.01 12.01 0 0 1 -12 12h-440a12.01 12.01 0 0 1 -12-12v-20h464zm-268.94-228 12 24h-62.12l12-24zm-30.12-16 11.06-22.11 11.06 22.11zm43.06 56v152h-8v-152zm-40.07 0h16.07v152h-16v-151a8.258 8.258 0 0 0 -.07-1zm-15.86 0a8.258 8.258 0 0 0 -.07 1v151h-8v-152zm135.93-24h32v16h-16a8 8 0 0 0 0 16h16v16h-32a8 8 0 0 0 0 16h32v16h-16a8 8 0 0 0 0 16h16v16h-32a8 8 0 0 0 0 16h32v16h-16a8 8 0 0 0 0 16h16v16h-64v-208h64v16h-32a8 8 0 0 0 0 16zm176 176h-128v-216a8 8 0 0 0 -8-8h-80a8 8 0 0 0 -8 8v216h-16v-168a8.081 8.081 0 0 0 -.84-3.58l-40-80a8.009 8.009 0 0 0 -14.32 0l-40 80a8.081 8.081 0 0 0 -.84 3.58v168h-128v-260a12.01 12.01 0 0 1 12-12h440a12.01 12.01 0 0 1 12 12z"/><path d="m96 360h-48a8 8 0 0 0 0 16h48a8 8 0 0 0 0-16z"/><path d="m128 360h-8a8 8 0 0 0 0 16h8a8 8 0 0 0 0-16z"/></g></g></svg>