<svg height="512" viewBox="0 0 512 512" width="512" xmlns="http://www.w3.org/2000/svg"><g><g fill="#57a4ff"><path d="m496 288v-64h-50.67a190.82 190.82 0 0 0 -32.83-79.25l35.83-35.83-45.25-45.25-35.83 35.83a190.82 190.82 0 0 0 -79.25-32.83v-50.67h-64v50.67a190.82 190.82 0 0 0 -79.25 32.83l-35.83-35.83-45.25 45.25 35.83 35.83a190.82 190.82 0 0 0 -32.83 79.25h-50.67v64h50.67a190.82 190.82 0 0 0 32.83 79.25l-35.83 35.83 45.25 45.25 35.83-35.83a190.82 190.82 0 0 0 79.25 32.83v50.67h64v-50.67a190.82 190.82 0 0 0 79.25-32.83l35.83 35.83 45.25-45.25-35.83-35.83a190.82 190.82 0 0 0 32.83-79.25zm-240 120a152 152 0 1 1 152-152 152 152 0 0 1 -152 152z"/><path d="m256 376a120 120 0 0 1 0-240c-30.93 0-56 53.73-56 120s25.07 120 56 120z"/><path d="m376 256a120.005 120.005 0 0 1 -120 120c30.93 0 56-53.73 56-120s-25.07-120-56-120a120.005 120.005 0 0 1 120 120z"/></g><g fill="#004fac"><path d="m496 216h-44.02a200.568 200.568 0 0 0 -29.12-70.29l31.13-31.13a8.015 8.015 0 0 0 0-11.32l-45.25-45.25a8.015 8.015 0 0 0 -11.32 0l-31.13 31.13a200.568 200.568 0 0 0 -70.29-29.12v-44.02a8 8 0 0 0 -8-8h-64a8 8 0 0 0 -8 8v44.02a200.568 200.568 0 0 0 -70.29 29.12l-31.13-31.13a8.015 8.015 0 0 0 -11.32 0l-45.25 45.25a8.015 8.015 0 0 0 0 11.32l31.13 31.13a200.568 200.568 0 0 0 -29.12 70.29h-44.02a8 8 0 0 0 -8 8v64a8 8 0 0 0 8 8h44.02a200.568 200.568 0 0 0 29.12 70.29l-31.13 31.13a8.015 8.015 0 0 0 0 11.32l45.25 45.25a8.015 8.015 0 0 0 11.32 0l31.13-31.13a200.568 200.568 0 0 0 70.29 29.12v44.02a8 8 0 0 0 8 8h64a8 8 0 0 0 8-8v-44.02a200.568 200.568 0 0 0 70.29-29.12l31.13 31.13a8.015 8.015 0 0 0 11.32 0l45.25-45.25a8.015 8.015 0 0 0 0-11.32l-31.13-31.13a200.568 200.568 0 0 0 29.12-70.29h44.02a8 8 0 0 0 8-8v-64a8 8 0 0 0 -8-8zm-8 64h-42.67a8 8 0 0 0 -7.89 6.68 184.285 184.285 0 0 1 -31.45 75.93 7.99 7.99 0 0 0 .86 10.3l30.17 30.17-33.94 33.94-30.17-30.17a8 8 0 0 0 -10.3-.86 184.285 184.285 0 0 1 -75.93 31.45 8 8 0 0 0 -6.68 7.89v42.67h-48v-42.67a8 8 0 0 0 -6.68-7.89 184.285 184.285 0 0 1 -75.93-31.45 8 8 0 0 0 -10.3.86l-30.17 30.17-33.94-33.94 30.17-30.17a7.99 7.99 0 0 0 .86-10.3 184.285 184.285 0 0 1 -31.45-75.93 8 8 0 0 0 -7.89-6.68h-42.67v-48h42.67a8 8 0 0 0 7.89-6.68 184.285 184.285 0 0 1 31.45-75.93 7.99 7.99 0 0 0 -.86-10.3l-30.17-30.17 33.94-33.94 30.17 30.17a8 8 0 0 0 10.3.86 184.285 184.285 0 0 1 75.93-31.45 8 8 0 0 0 6.68-7.89v-42.67h48v42.67a8 8 0 0 0 6.68 7.89 184.285 184.285 0 0 1 75.93 31.45 8 8 0 0 0 10.3-.86l30.17-30.17 33.94 33.94-30.17 30.17a7.99 7.99 0 0 0 -.86 10.3 184.285 184.285 0 0 1 31.45 75.93 8 8 0 0 0 7.89 6.68h42.67z"/><path d="m256 96c-88.22 0-160 71.78-160 160s71.78 160 160 160 160-71.78 160-160-71.78-160-160-160zm0 304c-79.4 0-144-64.6-144-144s64.6-144 144-144 144 64.6 144 144-64.6 144-144 144z"/><path d="m256 128a128 128 0 1 0 128 128 128.144 128.144 0 0 0 -128-128zm-36.62 22.15a106.409 106.409 0 0 0 -10.23 17.61c-10.16 21.79-16.12 50.04-17.02 80.24h-47.84a112.25 112.25 0 0 1 75.09-97.85zm-75.09 113.85h47.84c.9 30.2 6.86 58.45 17.02 80.24a106.409 106.409 0 0 0 10.23 17.61 112.25 112.25 0 0 1 -75.09-97.85zm103.71 102.24c-8.82-3.84-17.39-13.86-24.35-28.77-9.21-19.75-14.63-45.6-15.51-73.47h39.86zm0-118.24h-39.86c.88-27.87 6.3-53.72 15.51-73.47 6.96-14.91 15.53-24.92 24.35-28.77zm119.71 0h-47.84c-.9-30.2-6.86-58.45-17.02-80.24a106.409 106.409 0 0 0 -10.23-17.61 112.25 112.25 0 0 1 75.09 97.85zm-103.71-102.24c8.82 3.85 17.39 13.86 24.35 28.77 9.21 19.75 14.63 45.6 15.51 73.47h-39.86zm0 220.48v-102.24h39.86c-.88 27.87-6.3 53.72-15.51 73.47-6.96 14.91-15.53 24.93-24.35 28.77zm28.62-4.39a106.409 106.409 0 0 0 10.23-17.61c10.16-21.79 16.12-50.04 17.02-80.24h47.84a112.25 112.25 0 0 1 -75.09 97.85z"/></g></g></svg>