<svg height="512" viewBox="0 0 512 512" width="512" xmlns="http://www.w3.org/2000/svg"><g><g fill="#57a4ff"><path d="m296 240v28a19.994 19.994 0 0 1 -20 20h-40a19.994 19.994 0 0 1 -20-20v-28z"/><circle cx="256" cy="472" r="24"/><circle cx="40" cy="440" r="24"/><circle cx="472" cy="440" r="24"/></g><g fill="#004fac"><path d="m288 112a8 8 0 0 0 0-16h-64a8 8 0 0 0 0 16z"/><path d="m480 409.01v-57.01a8 8 0 0 0 -8-8h-208v-25.38a24.031 24.031 0 0 0 16-22.62v-.29a28.043 28.043 0 0 0 24-27.71v-20h8a8 8 0 0 0 8-8v-24a8 8 0 0 0 -8-8h-8v-20.85a96 96 0 1 0 -96 0v20.85h-8a8 8 0 0 0 -8 8v24a8 8 0 0 0 8 8h8v20a28.043 28.043 0 0 0 24 27.71v.29a24.031 24.031 0 0 0 16 22.62v25.38h-208a8 8 0 0 0 -8 8v57.01a32 32 0 1 0 16 0v-49.01h200v80a8.258 8.258 0 0 0 .07 1 32 32 0 1 0 15.86 0 8.258 8.258 0 0 0 .07-1v-80h200v49.01a32 32 0 1 0 16 0zm-424 30.99a16 16 0 1 1 -16-16 16.021 16.021 0 0 1 16 16zm120-336a80 80 0 1 1 116.36 71.28 7.984 7.984 0 0 0 -4.36 7.12v25.6h-8v-80a8 8 0 0 0 -16 0v80h-16v-80a8 8 0 0 0 -16 0v80h-8v-25.6a7.984 7.984 0 0 0 -4.36-7.12 79.721 79.721 0 0 1 -43.64-71.28zm32 128v-8h96v8zm28 48a12.01 12.01 0 0 1 -12-12v-20h64v20a12.01 12.01 0 0 1 -12 12zm36 192a16 16 0 1 1 -16-16 16.021 16.021 0 0 1 16 16zm-16-168a8.011 8.011 0 0 1 -8-8h16a8.011 8.011 0 0 1 -8 8zm216 152a16 16 0 1 1 16-16 16.021 16.021 0 0 1 -16 16z"/></g></g></svg>