<svg height="512" viewBox="0 0 512 512" width="512" xmlns="http://www.w3.org/2000/svg"><g><g fill="#57a4ff"><path d="m64 192h96v64h-96z"/><path d="m352 192h96v64h-96z" transform="matrix(-1 0 0 -1 800 448)"/></g><path d="m496 424h-24v-88a8 8 0 0 0 -8-8h-56v-64h40a8 8 0 0 0 8-8v-64a8 8 0 0 0 -8-8h-96a8 8 0 0 0 -8 8v24h-29.04l-50.96-43.68v-68.32h88a8 8 0 0 0 8-8v-80a8 8 0 0 0 -8-8h-192a8 8 0 0 0 -8 8v80a8 8 0 0 0 8 8h88v68.32l-50.96 43.68h-29.04v-24a8 8 0 0 0 -8-8h-96a8 8 0 0 0 -8 8v64a8 8 0 0 0 8 8h40v64h-56a8 8 0 0 0 -8 8v88h-24a8 8 0 0 0 -8 8v64a8 8 0 0 0 8 8h64a8 8 0 0 0 8-8v-64a8 8 0 0 0 -8-8h-24v-80h112v80h-24a8 8 0 0 0 -8 8v64a8 8 0 0 0 8 8h64a8 8 0 0 0 8-8v-64a8 8 0 0 0 -8-8h-24v-88a8 8 0 0 0 -8-8h-56v-64h40a8 8 0 0 0 8-8v-24h29.04l53.75 46.07a8 8 0 0 0 10.42 0l53.75-46.07h29.04v24a8 8 0 0 0 8 8h40v64h-56a8 8 0 0 0 -8 8v88h-24a8 8 0 0 0 -8 8v64a8 8 0 0 0 8 8h64a8 8 0 0 0 8-8v-64a8 8 0 0 0 -8-8h-24v-80h112v80h-24a8 8 0 0 0 -8 8v64a8 8 0 0 0 8 8h64a8 8 0 0 0 8-8v-64a8 8 0 0 0 -8-8zm-424 16v48h-48v-48zm128 0v48h-48v-48zm-48-192h-80v-48h80zm16-160v-64h176v64zm88 173.46-43.71-37.46 43.71-37.46 43.71 37.46zm104 178.54v48h-48v-48zm0-192v-48h80v48zm128 240h-48v-48h48z" fill="#004fac"/></g></svg>